<?xml version="1.0" encoding="UTF-8"?>
<svg xmlns="http://www.w3.org/2000/svg"
     xmlns:xlink="http://www.w3.org/1999/xlink"
     version="1.2"
     width="80mm" height="80mm" viewBox="0 0 80 80"
     stroke="none"
     fill="#000000"
     stroke-width="0.3"
     font-size="3.88"
>
<defs>
  <marker id="arrow" markerWidth="15" markerHeight="7" refX="5" refY="3.5" orient="auto" markerUnits="strokeWidth">
    <path d="M0,0 L15,3.5 L0,7 z" stroke="context-stroke" fill="context-stroke"/>
  </marker>
</defs>
<g stroke="#000000" id="img-bfe2c025-1">
  <g transform="translate(32,28)">
    <path fill="none" d="M8,-12 L-8,12 " class="primitive"/>
  </g>
  <g transform="translate(48,28)">
    <path fill="none" d="M8,12 L-8,-12 " class="primitive"/>
  </g>
  <g transform="translate(24,16)">
    <path fill="none" d="M16,0 L-16,0 " class="primitive"/>
  </g>
  <g transform="translate(56,16)">
    <path fill="none" d="M-16,0 L16,0 " class="primitive"/>
  </g>
</g>
<g transform="translate(40,16)">
  <circle cx="0" cy="0" r="4" class="primitive"/>
</g>
<g fill="#FF0000" id="img-bfe2c025-2">
  <g transform="translate(8,16)">
    <circle cx="0" cy="0" r="4" class="primitive"/>
  </g>
  <g transform="translate(24,40)">
    <circle cx="0" cy="0" r="4" class="primitive"/>
  </g>
  <g transform="translate(56,40)">
    <circle cx="0" cy="0" r="4" class="primitive"/>
  </g>
  <g transform="translate(72,16)">
    <circle cx="0" cy="0" r="4" class="primitive"/>
  </g>
</g>
<g fill="#FFFFFF" id="img-bfe2c025-3">
  <g transform="translate(8,16)">
    <g class="primitive">
      <text text-anchor="middle" dy="0.35em">j</text>
    </g>
  </g>
  <g transform="translate(24,40)">
    <g class="primitive">
      <text text-anchor="middle" dy="0.35em">w</text>
    </g>
  </g>
  <g transform="translate(40,16)">
    <g class="primitive">
      <text text-anchor="middle" dy="0.35em">v</text>
    </g>
  </g>
  <g transform="translate(56,40)">
    <g class="primitive">
      <text text-anchor="middle" dy="0.35em">k</text>
    </g>
  </g>
  <g transform="translate(72,16)">
    <g class="primitive">
      <text text-anchor="middle" dy="0.35em">u</text>
    </g>
  </g>
</g>
</svg>
