<?xml version="1.0" encoding="UTF-8"?>
<svg xmlns="http://www.w3.org/2000/svg"
     xmlns:xlink="http://www.w3.org/1999/xlink"
     version="1.2"
     width="80mm" height="80mm" viewBox="0 0 80 80"
     stroke="none"
     fill="#000000"
     stroke-width="0.3"
     font-size="3.88"
>
<defs>
  <marker id="arrow" markerWidth="15" markerHeight="7" refX="5" refY="3.5" orient="auto" markerUnits="strokeWidth">
    <path d="M0,0 L15,3.5 L0,7 z" stroke="context-stroke" fill="context-stroke"/>
  </marker>
</defs>
<g stroke="#000000" id="img-d144ffa3-1">
  <g transform="translate(16,32)">
    <path fill="none" d="M0,-16 L0,16 " class="primitive"/>
  </g>
  <g transform="translate(32,48)">
    <path fill="none" d="M-16,0 L16,0 " class="primitive"/>
  </g>
  <g transform="translate(48,32)">
    <path fill="none" d="M0,16 L0,-16 " class="primitive"/>
  </g>
  <g transform="translate(32,16)">
    <path fill="none" d="M16,0 L-16,0 " class="primitive"/>
  </g>
  <g transform="translate(60,60)">
    <path fill="none" d="M-12,-12 L12,12 " class="primitive"/>
  </g>
  <g transform="translate(32,32)">
    <path fill="none" d="M-16,16 L16,-16 " class="primitive"/>
  </g>
</g>
<g transform="translate(16,16)">
  <circle cx="0" cy="0" r="2.4" class="primitive"/>
</g>
<g transform="translate(16,48)">
  <circle cx="0" cy="0" r="2.4" class="primitive"/>
</g>
<g transform="translate(48,48)">
  <circle cx="0" cy="0" r="2.4" class="primitive"/>
</g>
<g transform="translate(48,16)">
  <circle cx="0" cy="0" r="2.4" class="primitive"/>
</g>
<g transform="translate(72,72)">
  <circle cx="0" cy="0" r="2.4" class="primitive"/>
</g>
<g fill="#FFFFFF" id="img-d144ffa3-2">
  <g transform="translate(16,16)">
    <g class="primitive">
      <text text-anchor="middle" dy="0.35em">a</text>
    </g>
  </g>
  <g transform="translate(16,48)">
    <g class="primitive">
      <text text-anchor="middle" dy="0.35em">b</text>
    </g>
  </g>
  <g transform="translate(48,48)">
    <g class="primitive">
      <text text-anchor="middle" dy="0.35em">c</text>
    </g>
  </g>
  <g transform="translate(48,16)">
    <g class="primitive">
      <text text-anchor="middle" dy="0.35em">d</text>
    </g>
  </g>
  <g transform="translate(72,72)">
    <g class="primitive">
      <text text-anchor="middle" dy="0.35em">e</text>
    </g>
  </g>
</g>
</svg>
